<?xml version="1.0" encoding="utf-8"?>
<!-- Generator: Adobe Illustrator 26.0.2, SVG Export Plug-In . SVG Version: 6.00 Build 0)  -->
<svg version="1.1" xmlns="http://www.w3.org/2000/svg" xmlns:xlink="http://www.w3.org/1999/xlink" x="0px" y="0px"
	 viewBox="0 0 1920 1080" style="enable-background:new 0 0 1920 1080;" xml:space="preserve">
<style type="text/css">
	.st0{display:none;}
	.st1{display:inline;}
	.st2{fill:#FFFFFF;}
	.st3{fill:#FF6333;}
</style>
<g id="Camada_1" class="st0">
	<g class="st1">
		<g>
			<path class="st2" d="M400.57,500.23l-0.02,0.12l100.7,18.26c9.15,1.66,15.07,0.99,17.74-2.02c2.25-2.57,4.16-8.15,5.72-16.72
				c0.36-1.98,0.71-4.13,1.04-6.46l3.29-18.18l29.94,5.43l-7.18,39.58c-1.66,9.16-4.89,16.66-9.71,22.52
				c-4.81,5.86-10.58,9.95-17.3,12.26c-6.72,2.32-13.8,2.8-21.22,1.45l-136.94-24.83l15.07-83.13l30.68,5.56L400.57,500.23z"/>
			<path class="st2" d="M455.71,326.53c1.21,0.16,2.85,0.53,4.93,1.11c2.07,0.58,3.73,1.14,4.96,1.67l96.31,41.78
				c6.92,3,12.51,7.34,16.75,13.02c4.25,5.68,6.76,12.28,7.53,19.78c0.76,7.5-0.73,15.56-4.46,24.17l-4.95,11.42
				c-3.7,8.53-8.57,15.11-14.58,19.71c-6.01,4.61-12.54,7.28-19.58,8.02c-7.03,0.74-14.01-0.39-20.93-3.4l-95.62-41.48
				c-6.92-3-12.51-7.33-16.78-12.97c-4.27-5.64-6.77-12.23-7.52-19.78c-0.75-7.54,0.73-15.58,4.43-24.12l4.95-11.42
				c4.64-10.69,10.98-18.31,19.03-22.86C438.23,326.67,446.74,325.11,455.71,326.53z M469.81,371.43
				c-7.22-3.13-12.92-5.37-17.09-6.72c-4.16-1.35-7.41-1.51-9.74-0.46c-2.33,1.05-4.38,3.61-6.14,7.68
				c-1.77,4.08-2.24,7.34-1.44,9.79c0.81,2.45,3.13,4.74,6.96,6.86c3.83,2.12,9.36,4.75,16.59,7.88l59.17,25.67
				c7.22,3.13,12.92,5.38,17.09,6.72c4.17,1.35,7.41,1.51,9.74,0.46c2.33-1.05,4.39-3.65,6.19-7.8c1.8-4.15,2.29-7.43,1.46-9.85
				c-0.82-2.41-3.16-4.66-7.01-6.74c-3.84-2.08-9.38-4.69-16.61-7.82L469.81,371.43z"/>
			<path class="st2" d="M515.56,232.57l-11.55,14.6l104.73,76.16l11.25-14.83l20.95,15.23l-40.45,55.62l-25.35-4.91l12.77-20.55
				l-105.65-76.83l-7.25,11.05l-26.57-5.79l46.78-64.54L515.56,232.57z"/>
			<path class="st2" d="M636.57,175.06l-23.33,18.05l-25.1-27.98l-0.57,0.5c-1.55,1.28-2.95,2.48-4.2,3.6
				c-5.87,5.26-9.53,9.46-11.01,12.58c-1.48,3.13-0.01,7.33,4.39,12.61c0.66,0.87,1.51,1.91,2.54,3.12
				c1.04,1.21,2.08,2.44,3.14,3.69c1.06,1.24,1.96,2.27,2.68,3.08l1.17,1.31l77.92-8.6l22.75,25.36c5.04,5.62,8.32,11.9,9.84,18.87
				c1.53,6.97,1.07,14.02-1.37,21.16c-2.43,7.14-7.12,13.81-14.04,20.02l-39.87,35.77l-42.9-47.83l23.32-18.05l23.87,21.15
				c2.31-2.07,4.43-3.91,6.35-5.53c1.37-1.11,2.61-2.18,3.73-3.18c2.99-2.69,5.34-5.15,7.03-7.41c1.7-2.25,1.9-4.85,0.61-7.8
				c-1.3-2.95-4.29-7.04-9-12.28l-1.51-1.68l-78.51,7.94l-25.86-28.83c-5.04-5.61-8.33-11.89-9.89-18.83
				c-1.55-6.94-1.09-13.99,1.37-21.16c2.46-7.16,7.17-13.85,14.09-20.07L593,119.9L636.57,175.06z"/>
			<path class="st2" d="M671.98,68.81l53.89-27.98l83.02,159.9l-32.81,17.03l-25.31-48.76l-28.49,12.52l-0.11,0.06l26.24,50.55
				l-32.81,17.03l-24.68-47.53l-26.42-21.42l12.05-6.26l-25.08-48.31c-3.47-6.7-5.08-13.6-4.82-20.73
				c0.27-7.13,2.47-13.84,6.61-20.15C657.41,78.45,663.65,73.13,671.98,68.81z M709.36,156.91l27.67-14.36l-29.95-57.69l-0.11,0.06
				c-3.2,1.48-6.07,2.87-8.59,4.18c-6.99,3.63-11.41,6.77-13.24,9.42c-2.31,3.37-1.36,9.11,2.85,17.22L709.36,156.91z"/>
			<path class="st2" d="M900.93,56.04l7.51,48.52c0.57,3.73,0.23,7.26-1.04,10.59c-1.26,3.34-3.38,6.17-6.38,8.49
				c-2.99,2.33-6.78,3.85-11.38,4.56l-28.95,4.48l-13.77-89.02l28.94-4.48c4.6-0.71,8.68-0.41,12.23,0.91
				c3.55,1.31,6.44,3.38,8.65,6.17C898.97,49.06,900.36,52.32,900.93,56.04z M876.64,114.82c1.17-0.13,2.22-0.28,3.18-0.42
				c4.31-0.67,7.12-1.55,8.43-2.64c1.54-1.26,1.97-4.1,1.29-8.53l-6.23-40.19c-0.68-4.43-1.95-7.01-3.8-7.74
				c-1.59-0.65-4.54-0.63-8.84,0.03c-0.96,0.15-2,0.33-3.16,0.55L876.64,114.82z"/>
			<path class="st2" d="M965.1,47.89l-28.25-0.9l0.95,33.81l28.21-0.8l0.45,15.58l-28.26-0.9l0.41,14.51l28.16-2.49l0.44,15.58
				l-28.21,0.8l-18.41,0.58l-0.75-26.77l-7.28-15.39l6.85-0.19l-1.34-47.69l46.62-1.31L965.1,47.89z"/>
			<path class="st2" d="M1188.97,38.87l42.29,15.41l-61.69,169.28l-34.73-12.65l48.73-133.72l-31.44,16.51l-39.74,109.03
				l-34.72-12.66l39.73-109.03l-13.45-32.86l-48.72,133.72l-34.61-12.61L1082.3,0l42.17,15.37l20.68,43.53L1188.97,38.87z"/>
			<path class="st2" d="M1345.38,168.89c-0.47,1.12-1.25,2.62-2.35,4.47c-1.11,1.85-2.07,3.31-2.9,4.36l-65.32,82.18
				c-4.69,5.9-10.34,10.17-16.92,12.8c-6.59,2.63-13.61,3.35-21.06,2.14c-7.44-1.21-14.84-4.73-22.19-10.57l-9.75-7.74
				c-7.28-5.79-12.37-12.19-15.26-19.2c-2.89-7-3.78-14.01-2.66-20.99c1.11-6.99,4.01-13.43,8.7-19.34l64.86-81.59
				c4.69-5.9,10.32-10.18,16.87-12.85c6.55-2.66,13.57-3.37,21.05-2.14c7.48,1.24,14.86,4.75,22.14,10.54l9.75,7.75
				c9.12,7.24,14.83,15.35,17.13,24.3C1349.78,151.96,1349.08,160.59,1345.38,168.89z M1298.36,170.86
				c4.9-6.17,8.55-11.09,10.93-14.76c2.38-3.67,3.38-6.77,2.97-9.29c-0.4-2.52-2.36-5.16-5.83-7.93c-3.48-2.77-6.5-4.07-9.08-3.93
				c-2.57,0.14-5.39,1.79-8.43,4.95c-3.04,3.15-7.01,7.81-11.91,13.97l-40.13,50.49c-4.9,6.17-8.55,11.09-10.93,14.76
				c-2.38,3.67-3.37,6.77-2.96,9.29c0.4,2.51,2.38,5.18,5.93,8c3.54,2.81,6.58,4.14,9.14,3.97c2.54-0.17,5.31-1.85,8.32-5.02
				c3.01-3.17,6.96-7.85,11.87-14.02L1298.36,170.86z"/>
			<path class="st2" d="M1453.06,252.08l-24.52,19.27l-15.81-25l-119.5,93.92l-22.84-29.06l120.01-94.31l-22.21-22.36l24.52-19.26
				L1453.06,252.08z"/>
			<path class="st2" d="M1493.31,386.52c-0.92,0.8-2.3,1.78-4.11,2.94c-1.82,1.16-3.34,2.03-4.55,2.59l-95.25,44.13
				c-6.85,3.17-13.8,4.46-20.87,3.85c-7.07-0.6-13.66-3.12-19.77-7.54c-6.12-4.42-11.15-10.89-15.09-19.4l-5.24-11.3
				c-3.91-8.44-5.58-16.44-5.02-24c0.56-7.55,2.91-14.21,7.03-19.95c4.12-5.74,9.61-10.2,16.46-13.38l94.56-43.82
				c6.85-3.17,13.8-4.47,20.84-3.91c7.06,0.57,13.65,3.08,19.77,7.53c6.14,4.46,11.16,10.91,15.07,19.35l5.23,11.29
				c4.89,10.57,6.37,20.37,4.41,29.41C1504.84,373.37,1500.34,380.77,1493.31,386.52z M1450.4,367.19
				c7.15-3.31,12.61-6.07,16.39-8.29c3.78-2.21,6.05-4.54,6.81-6.97c0.76-2.43,0.22-5.67-1.65-9.7s-3.99-6.56-6.35-7.59
				c-2.37-1.03-5.62-0.81-9.76,0.64c-4.13,1.45-9.76,3.83-16.91,7.15l-58.52,27.11c-7.15,3.31-12.61,6.08-16.39,8.29
				c-3.78,2.21-6.05,4.54-6.81,6.97c-0.77,2.44-0.2,5.7,1.7,9.81c1.91,4.11,4.03,6.65,6.39,7.64c2.35,0.99,5.58,0.74,9.7-0.75
				c4.11-1.49,9.75-3.89,16.89-7.21L1450.4,367.19z"/>
			<path class="st2" d="M1483.62,526.2l-3.4-29.3l36.93-7.03l-0.14-0.74c-0.29-1.99-0.6-3.81-0.91-5.46
				c-1.48-7.74-3.17-13.05-5.08-15.93c-1.91-2.88-6.27-3.8-13.07-2.76c-1.09,0.12-2.42,0.31-3.99,0.57
				c-1.57,0.26-3.16,0.52-4.78,0.78c-1.61,0.26-2.96,0.5-4.02,0.7l-1.73,0.33l-32.92,71.15l-33.47,6.37
				c-7.41,1.41-14.49,0.97-21.25-1.33c-6.76-2.3-12.55-6.34-17.4-12.11c-4.86-5.78-8.16-13.23-9.89-22.37l-10.03-52.61l63.11-12.02
				l3.4,29.3l-30.44,9.51c0.59,3.05,1.07,5.81,1.45,8.3c0.25,1.75,0.52,3.36,0.8,4.84c0.75,3.95,1.65,7.24,2.71,9.85
				c1.06,2.61,3.18,4.13,6.37,4.55c3.19,0.41,8.25-0.04,15.16-1.35l2.22-0.42l33.78-71.32l38.04-7.24
				c7.41-1.41,14.48-0.98,21.22,1.27c6.75,2.26,12.55,6.29,17.41,12.11c4.86,5.81,8.16,13.29,9.91,22.43l9.73,51.13L1483.62,526.2z"
				/>
		</g>
		<g>
			<path class="st3" d="M970.01,290.57c-77.13-0.5-153.33,19.18-220.18,56.82h0c-9.32,5.25-18.56,10.9-27.47,16.81l7.91,11.93
				l-0.02,0l-7.94-11.89l-4.71,3.14l-1.28,5.52c-5.05,21.77-8.33,44.2-9.74,66.66l0,0c-0.06,0.93-0.11,1.86-0.15,2.79l-0.06,1.11
				l14.26,0.76l-14.26-0.76c-0.48,9.11-0.66,18.24-0.55,27.2c-3.74,9.82-6.97,19.91-9.56,30.07l0,0
				c-5.67,22.18-8.59,45.17-8.68,68.3l0,0.28c-0.01,0.27-0.01,0.55-0.01,0.82c0,33.76,5.96,66.68,17.69,98l-1.36,1.95l-28.4,40.55
				l46.5,18.78l25.44,10.28l68.96,27.86l191.09,77.19l105.71,42.7l6.69-6.82c9.55-9.74,18.74-20.01,27.3-30.52l0,0
				c3.23-3.96,6.45-8.06,9.57-12.17c3.23-4.26,6.35-8.52,9.26-12.65l0,0c10.57-15,20.25-30.75,28.86-46.9
				c0.94-1.76,1.87-3.52,2.78-5.28l-9.34-4.82v0l9.35,4.81l8.09-15.86l-17.47-7.06l-4.5,11.13l0,0l4.49-11.13l-15.89-6.42l-8.3-3.35
				l-57.61-23.27L1073,665.61l64.99,25.2l-26.6-40.95l-69.18-26.83l-9.3-3.76l-9.38-3.79l-33.15-51.04l87.6,33.97l-26.6-40.95
				l-69.22-26.84l-27.99-11.31l-13.59-5.49l-32.89-50.64l3.87,1.56l85.98,34.73l21.93,8.86l207.37,83.77l19.36,7.97l0.42-20.86
				c0.04-2.01,0.07-4.02,0.09-6.03c0.01-0.96,0.02-1.92,0.02-2.89c0-0.03,0-0.06,0-0.09v-0.06
				C1246.74,416.86,1123.3,291.56,970.01,290.57z M1008.24,473l-15.89-6.42l-70.09-28.31l-22.94-9.27l-10.22-4.13l-54.71-22.1
				l24.67,37.99l0,0l7.85,12.08h0l52.16,80.32l0,0l2.45,3.78l22.93,9.26l60.01,92.4l22.93,9.26l57.56,88.62l2.65,3.94l3.98,1.53
				l61.79,24.96l12.48,5.04c-7.07,12.67-14.84,25.04-23.2,36.9l11.67,8.23l-11.68-8.22c-2.72,3.86-5.63,7.84-8.67,11.84
				c-2.92,3.85-5.94,7.69-8.95,11.39l11.07,9.02l-11.07-9.02c-6.03,7.4-12.39,14.67-18.97,21.7l-87.89-35.5L827.1,741.09
				l-68.96-27.86l-25.45-10.28l-13.2-5.33l7.8-11.14l5.74-8.2l4.75-6.75l-0.04-0.09c-2.44-5.18-4.71-10.43-6.66-15.81
				c-9.92-27.36-14.95-56.07-14.95-85.49l0.01-0.99l-14.28-0.06l14.28,0.06c0.08-20.79,2.7-41.44,7.79-61.35l-13.84-3.54l13.84,3.54
				c2.54-9.95,5.73-19.84,9.49-29.4l1.11-2.95l-0.12-2.55c-0.18-9.16-0.01-18.56,0.49-27.92l0,0l0.06-1.18
				c0.04-0.81,0.08-1.63,0.13-2.44l-14.25-0.91l14.25,0.9c1.19-18.99,3.83-37.94,7.82-56.44c6.85-4.41,13.87-8.65,20.94-12.63
				l-7.01-12.44l7.01,12.44c61.75-34.78,132.05-53.16,203.3-53.16c134.23,0,244.19,105.91,250.72,238.56L1008.24,473z"/>
		</g>
		<g>
			<path class="st2" d="M621.57,958.83l43.5-59.52l20.51,14.99c4.63,3.38,7.95,6.25,9.97,8.6c2.83,3.28,4.71,6.82,5.61,10.64
				c1.2,4.95,1.07,10.05-0.39,15.32c-1.46,5.26-4.13,10.55-8,15.86c-3.31,4.52-6.76,8.14-10.37,10.86
				c-3.61,2.72-7.07,4.62-10.39,5.7c-3.33,1.08-6.45,1.56-9.37,1.44c-2.93-0.12-6.02-0.86-9.29-2.21
				c-3.27-1.35-6.71-3.34-10.31-5.97L621.57,958.83z M634.58,957.56l12.71,9.29c3.92,2.87,7.27,4.76,10.04,5.65
				c2.77,0.9,5.3,1.17,7.59,0.82c3.24-0.5,6.52-1.95,9.87-4.34c3.35-2.39,6.66-5.84,9.95-10.33c4.55-6.23,7.03-11.76,7.43-16.59
				c0.4-4.84-0.45-8.89-2.54-12.17c-1.51-2.36-4.61-5.24-9.3-8.67l-12.51-9.14L634.58,957.56z"/>
			<path class="st2" d="M697.91,1010.84l33.14-65.86l47.62,23.96l-3.91,7.77l-38.91-19.58l-10.15,20.17l36.43,18.33l-3.89,7.72
				l-36.43-18.33l-11.28,22.42l40.43,20.35l-3.91,7.77L697.91,1010.84z"/>
			<path class="st2" d="M780.04,1023.57l9.02,1.99c-0.69,3.65-0.63,6.84,0.19,9.57c0.81,2.74,2.6,5.3,5.36,7.69
				c2.76,2.39,6.14,4.22,10.14,5.48c3.55,1.11,6.85,1.57,9.9,1.37c3.05-0.2,5.53-1.01,7.43-2.44c1.91-1.42,3.2-3.22,3.88-5.4
				c0.7-2.21,0.66-4.33-0.1-6.39c-0.77-2.05-2.44-4.09-5.03-6.14c-1.66-1.33-5.48-3.79-11.45-7.36c-5.97-3.58-10.04-6.46-12.2-8.65
				c-2.8-2.81-4.63-5.78-5.45-8.91c-0.83-3.13-0.74-6.3,0.27-9.53c1.12-3.55,3.17-6.55,6.15-9c2.98-2.45,6.66-3.88,11.03-4.26
				c4.38-0.38,8.93,0.17,13.66,1.65c5.21,1.64,9.55,3.92,13.01,6.85c3.45,2.93,5.74,6.36,6.86,10.3s1.11,7.99-0.02,12.17l-9.14-2.13
				c0.92-4.6,0.34-8.46-1.71-11.6c-2.05-3.14-5.78-5.56-11.19-7.25c-5.63-1.77-10.06-2.02-13.28-0.77
				c-3.22,1.25-5.29,3.34-6.21,6.25c-0.79,2.53-0.53,4.89,0.78,7.09c1.28,2.19,5.44,5.34,12.47,9.42
				c7.03,4.09,11.75,7.21,14.15,9.37c3.51,3.17,5.78,6.51,6.82,10.02c1.04,3.51,0.97,7.15-0.21,10.92
				c-1.18,3.74-3.36,6.94-6.54,9.57c-3.18,2.64-7.07,4.25-11.66,4.83c-4.6,0.57-9.4,0.08-14.42-1.5c-6.37-2-11.41-4.6-15.13-7.8
				c-3.72-3.2-6.22-7.06-7.5-11.55C778.65,1032.93,778.69,1028.31,780.04,1023.57z"/>
			<path class="st2" d="M859.63,1070.61l9.95-73.05l25.16,3.43c5.68,0.77,9.97,1.71,12.87,2.82c4.05,1.53,7.38,3.76,10,6.69
				c3.41,3.78,5.72,8.33,6.94,13.66c1.22,5.33,1.39,11.25,0.5,17.76c-0.75,5.55-2.07,10.38-3.95,14.49
				c-1.88,4.11-4.03,7.43-6.43,9.96c-2.41,2.53-4.93,4.44-7.55,5.72c-2.63,1.28-5.7,2.11-9.22,2.47c-3.52,0.37-7.49,0.25-11.9-0.35
				L859.63,1070.61z M870.48,1063.31l15.6,2.12c4.82,0.66,8.66,0.72,11.52,0.2c2.87-0.52,5.22-1.49,7.07-2.9
				c2.6-1.98,4.81-4.82,6.61-8.51c1.81-3.7,3.08-8.3,3.84-13.82c1.03-7.64,0.58-13.68-1.37-18.13c-1.95-4.44-4.62-7.61-8.02-9.49
				c-2.46-1.35-6.55-2.42-12.3-3.2l-15.35-2.09L870.48,1063.31z"/>
			<path class="st2" d="M951.68,1080l-2.39-73.69l53.28-1.73l0.28,8.7l-43.53,1.41l0.73,22.57l40.76-1.32l0.28,8.64l-40.76,1.32
				l0.81,25.08l45.24-1.47l0.28,8.7L951.68,1080z"/>
			<path class="st2" d="M1119.13,1046.87l2.25,8.41l-47.08,12.56c-0.63-2.09-0.83-4.2-0.61-6.35c0.34-3.52,1.42-7.19,3.23-11.01
				c1.81-3.81,4.67-8.43,8.56-13.84c6.05-8.41,9.94-14.84,11.67-19.28c1.73-4.43,2.16-8.3,1.27-11.61
				c-0.93-3.47-2.94-6.06-6.06-7.78c-3.11-1.72-6.66-2.05-10.65-0.99c-4.21,1.12-7.24,3.29-9.09,6.49c-1.85,3.2-2.2,7.04-1.03,11.52
				l-9.24,1.48c-1.17-6.87-0.22-12.6,2.86-17.18c3.08-4.59,8-7.78,14.77-9.59c6.83-1.82,12.75-1.37,17.74,1.35
				c5,2.73,8.24,6.89,9.74,12.5c0.76,2.85,0.93,5.81,0.49,8.87s-1.59,6.48-3.48,10.25c-1.9,3.77-5.28,9.15-10.14,16.13
				c-4.07,5.8-6.64,9.69-7.71,11.66c-1.07,1.97-1.89,3.88-2.43,5.72L1119.13,1046.87z"/>
			<path class="st2" d="M1132.27,1013.3c-3.38-8.03-5.28-14.85-5.68-20.44c-0.4-5.59,0.46-10.4,2.6-14.43
				c2.15-4.03,5.68-7.08,10.63-9.17c3.64-1.53,7.15-2.15,10.52-1.84c3.37,0.31,6.53,1.47,9.49,3.48c2.96,2.01,5.78,4.79,8.47,8.33
				c2.69,3.54,5.46,8.68,8.3,15.42c3.35,7.97,5.24,14.75,5.67,20.34c0.42,5.59-0.44,10.4-2.57,14.45c-2.13,4.05-5.7,7.11-10.67,9.21
				c-6.55,2.76-12.69,2.57-18.41-0.55C1143.77,1034.33,1137.65,1026.06,1132.27,1013.3z M1140.85,1009.69
				c4.69,11.16,9.12,18.03,13.29,20.62c4.17,2.59,8.16,3.08,12,1.47c3.83-1.62,6.27-4.83,7.32-9.63c1.05-4.8-0.77-12.77-5.45-23.89
				c-4.71-11.19-9.14-18.07-13.3-20.65c-4.16-2.58-8.18-3.05-12.08-1.41c-3.83,1.61-6.21,4.52-7.13,8.73
				C1134.38,990.29,1136.16,998.54,1140.85,1009.69z"/>
			<path class="st2" d="M1250.22,984.77l4.45,7.48l-41.88,24.91c-1.17-1.84-1.94-3.82-2.3-5.95c-0.63-3.48-0.6-7.31,0.11-11.48
				c0.7-4.16,2.19-9.38,4.47-15.65c3.53-9.75,5.52-16.99,5.97-21.72c0.46-4.74-0.18-8.58-1.93-11.52c-1.84-3.08-4.48-5.03-7.95-5.83
				c-3.47-0.81-6.97-0.16-10.51,1.95c-3.75,2.23-6.08,5.13-6.98,8.72c-0.91,3.59-0.2,7.37,2.13,11.37l-8.48,3.93
				c-3-6.29-3.64-12.06-1.93-17.31c1.71-5.25,5.58-9.67,11.6-13.25c6.08-3.61,11.9-4.79,17.45-3.53c5.55,1.26,9.81,4.39,12.77,9.38
				c1.5,2.53,2.47,5.33,2.89,8.4c0.41,3.07,0.23,6.67-0.57,10.81c-0.8,4.14-2.59,10.23-5.36,18.28c-2.33,6.7-3.75,11.14-4.25,13.32
				c-0.49,2.18-0.75,4.24-0.78,6.17L1250.22,984.77z"/>
			<path class="st2" d="M1253.73,948.86c-5.46-6.8-9.15-12.84-11.07-18.11c-1.92-5.26-2.41-10.13-1.45-14.59
				c0.96-4.46,3.52-8.37,7.71-11.73c3.09-2.47,6.3-4.02,9.62-4.65c3.32-0.62,6.68-0.37,10.07,0.75c3.4,1.12,6.88,3.02,10.43,5.69
				c3.56,2.67,7.63,6.85,12.2,12.56c5.42,6.75,9.09,12.75,11.02,18.01c1.94,5.26,2.44,10.13,1.49,14.6
				c-0.95,4.47-3.53,8.4-7.74,11.78c-5.54,4.44-11.49,5.95-17.84,4.51C1270.54,965.94,1262.39,959.66,1253.73,948.86z
				 M1260.99,943.04c7.57,9.44,13.71,14.84,18.43,16.2c4.72,1.35,8.7,0.73,11.94-1.87c3.24-2.6,4.71-6.36,4.4-11.27
				c-0.3-4.91-4.24-12.08-11.78-21.49c-7.59-9.47-13.74-14.87-18.45-16.21c-4.7-1.34-8.7-0.69-12,1.95
				c-3.24,2.6-4.73,6.05-4.47,10.35C1249.45,926.15,1253.42,933.6,1260.99,943.04z"/>
		</g>
	</g>
</g>
<g id="Camada_2">
	<g>
		<path class="st3" d="M976.09,0.02c-139.55-0.9-277.42,34.7-398.38,102.81h0c-16.86,9.49-33.58,19.73-49.71,30.42l14.31,21.58
			l-0.04-0.01l-14.37-21.51l-8.53,5.68l-2.31,9.98c-9.14,39.4-15.07,79.98-17.61,120.62l0,0c-0.11,1.68-0.19,3.36-0.28,5.05
			l-0.1,2.01l25.8,1.38l-25.8-1.37c-0.87,16.48-1.19,33-0.99,49.22c-6.76,17.77-12.61,36.02-17.3,54.41l0,0
			c-10.26,40.14-15.54,81.72-15.7,123.59l-0.01,0.5c-0.01,0.5-0.02,0.99-0.02,1.49c0,61.08,10.78,120.65,32.01,177.32l-2.46,3.52
			l-51.38,73.38l84.14,33.98l46.04,18.6l124.78,50.4l345.75,139.67l191.27,77.26l12.1-12.34c17.28-17.62,33.9-36.2,49.4-55.22l0,0
			c5.84-7.16,11.66-14.58,17.32-22.03c5.85-7.71,11.48-15.41,16.75-22.89l0,0c19.12-27.13,36.64-55.64,52.21-84.85
			c1.7-3.18,3.39-6.36,5.04-9.56l-16.91-8.71v0l16.91,8.71l14.64-28.7l-31.62-12.77l-8.13,20.13l0,0l8.13-20.13l-28.75-11.61
			l-15.02-6.07L1223,771.84l-60.57-93.25l117.59,45.6l-48.12-74.09l-125.18-48.55l-16.83-6.8l-16.97-6.86l-59.98-92.36l158.5,61.47
			l-48.12-74.09l-125.24-48.57l-50.64-20.46l-24.59-9.93l-59.5-91.62l7.01,2.83l155.56,62.84l39.68,16.03l375.2,151.56l35.02,14.42
			l0.75-37.75c0.07-3.63,0.13-7.27,0.17-10.91c0.02-1.74,0.04-3.48,0.04-5.23c0-0.06,0-0.11,0-0.17v-0.11
			C1476.78,228.51,1253.44,1.81,976.09,0.02z M1045.27,330.1l-28.75-11.61l-126.81-51.23l-41.5-16.77l-18.49-7.47l-98.99-39.99
			l44.64,68.73l0,0l14.2,21.86h0l94.38,145.32l0,0l4.44,6.83l41.49,16.76l108.58,167.18l41.5,16.76l104.14,160.34l4.8,7.12l7.2,2.76
			l111.79,45.16l22.58,9.12c-12.79,22.92-26.85,45.3-41.97,66.77l21.12,14.88l-21.13-14.88c-4.92,6.99-10.19,14.19-15.68,21.42
			c-5.28,6.97-10.74,13.91-16.2,20.61l20.03,16.33l-20.03-16.32c-10.91,13.39-22.41,26.54-34.33,39.26l-159.02-64.24L717.52,815.15
			l-124.78-50.4l-46.04-18.59l-23.89-9.65l14.11-20.16l10.39-14.84l8.59-12.21l-0.08-0.16c-4.41-9.37-8.53-18.87-12.06-28.6
			c-17.95-49.5-27.04-101.45-27.04-154.68l0.03-1.79l-25.84-0.1l25.84,0.1c0.14-37.62,4.88-74.97,14.09-111l-25.03-6.4l25.03,6.4
			c4.6-18,10.38-35.9,17.17-53.2l2-5.33l-0.22-4.61c-0.32-16.58-0.02-33.58,0.88-50.53l0,0l0.11-2.14c0.07-1.47,0.15-2.95,0.24-4.42
			l-25.78-1.64l25.79,1.62c2.15-34.35,6.93-68.65,14.15-102.12c12.4-7.98,25.09-15.65,37.88-22.86l-12.68-22.51l12.68,22.51
			c111.73-62.92,238.93-96.18,367.84-96.18c242.88,0,441.83,191.63,453.64,431.63L1045.27,330.1z"/>
	</g>
</g>
</svg>
